<svg xmlns="http://www.w3.org/2000/svg" viewBox="0 0 20 20"><path d="M17.72,10.12c-2.29,2.82-4.65,4.4-7,4.69A.57.57,0,0,0,10.79,16h.07c2.76-.34,5.47-2.18,8-5.47a.48.48,0,0,0,.12-.35.49.49,0,0,0-.12-.36,19.58,19.58,0,0,0-3.07-3.19.56.56,0,0,0-.8.09.57.57,0,0,0,.08.8A17.86,17.86,0,0,1,17.72,10.12Z"/><path d="M1.16,10.49a13,13,0,0,0,6.12,5L7,16.13a.55.55,0,0,0,.22.77.53.53,0,0,0,.27.08.57.57,0,0,0,.5-.3l6.76-12.1a.57.57,0,0,0-.22-.78.59.59,0,0,0-.78.22l-.51.92a8.34,8.34,0,0,0-8.63,1.2A14.79,14.79,0,0,0,1.09,9.81a.89.89,0,0,0-.09.31A.57.57,0,0,0,1.16,10.49ZM10,6a3.54,3.54,0,0,1,2.19.75L8.76,12.89A3.56,3.56,0,0,1,10,6Zm-3.25.17A4.7,4.7,0,0,0,8.2,13.89l-.35.63a12.12,12.12,0,0,1-5.59-4.4A13.09,13.09,0,0,1,6.76,6.16Z"/></svg>